<svg width="33" height="22" viewBox="0 0 33 22" fill="none" xmlns="http://www.w3.org/2000/svg">
<rect x="5.66669" y="0.5" width="26.8333" height="21" rx="8.5" fill="#8E8E8E" stroke="white"/>
<rect x="0.5" y="0.5" width="26.8333" height="21" rx="8.5" fill="#8E8E8E" stroke="white"/>
<g clip-path="url(#clip0_2_19)">
<path d="M9.26649 16.6048C9.00346 17.0161 8.41682 17.1547 7.95643 16.9197C7.49604 16.6848 7.34088 16.1607 7.60391 15.7495L8.28786 14.692C9.0613 14.4781 9.68996 14.6426 10.1871 15.1784L9.26649 16.6048Z" fill="white"/>
<path d="M15.9164 14.2972H7.20936C6.67802 14.2972 6.25183 13.9167 6.25183 13.4419C6.25183 12.9672 6.67802 12.5865 7.20936 12.5865H9.65048L12.7756 7.74814L11.7996 6.23485C11.5366 5.82358 11.6918 5.30425 12.1522 5.06458C12.6126 4.82961 13.1939 4.96822 13.4622 5.37948L13.8804 6.03985L14.3066 5.38192C14.5696 4.97065 15.1563 4.83204 15.6167 5.06701C16.0771 5.30197 16.2322 5.82601 15.9692 6.23728L11.8628 12.5867H14.8327C15.7953 12.5867 16.3346 13.5971 15.9164 14.2972Z" fill="white"/>
<path d="M20.6066 14.302H19.223L20.1569 15.7494C20.42 16.1607 20.2648 16.68 19.8044 16.9197C19.344 17.1547 18.7627 17.0161 18.4944 16.6048C16.9213 14.1681 15.7402 12.3446 14.9564 11.1296C14.154 9.89354 14.7275 8.6529 15.2931 8.23221C15.9217 9.19563 16.8609 10.6503 18.1156 12.5912H20.6068C21.1381 12.5912 21.5643 12.972 21.5643 13.4466C21.5641 13.9212 21.1379 14.302 20.6066 14.302Z" fill="white"/>
</g>
<defs>
<clipPath id="clip0_2_19">
<rect width="15.5" height="13.8462" fill="white" transform="translate(6.16669 4.0769)"/>
</clipPath>
</defs>
</svg>
