<svg width="27" height="20" viewBox="0 0 27 20" fill="none" xmlns="http://www.w3.org/2000/svg">
<path d="M13.5001 15C15.9853 15 18.0001 13.2091 18.0001 11C18.0001 8.79086 15.9853 7 13.5001 7C11.0148 7 9.00006 8.79086 9.00006 11C9.00006 13.2091 11.0148 15 13.5001 15Z" fill="#8E8E8E"/>
<path d="M9.45 0L6.9795 2.22222H2.7C1.215 2.22222 0 3.22222 0 4.44444V17.7778C0 19 1.215 20 2.7 20H24.3C25.785 20 27 19 27 17.7778V4.44444C27 3.22222 25.785 2.22222 24.3 2.22222H20.0205L17.55 0H9.45ZM13.5 16.6667C9.774 16.6667 6.75 14.1778 6.75 11.1111C6.75 8.04445 9.774 5.55556 13.5 5.55556C17.226 5.55556 20.25 8.04445 20.25 11.1111C20.25 14.1778 17.226 16.6667 13.5 16.6667Z" fill="#8E8E8E"/>
</svg>
